<?xml version="1.0" standalone="no"?>
<!DOCTYPE svg PUBLIC "-//W3C//DTD SVG 1.1//EN" "http://www.w3.org/Graphics/SVG/1.1/DTD/svg11.dtd" >
<svg xmlns="http://www.w3.org/2000/svg">
<metadata></metadata>
<defs>
<font id="franklin_gothic_medium_condRg" horiz-adv-x="1046" >
<font-face units-per-em="2048" ascent="1638" descent="-410" />
<missing-glyph horiz-adv-x="382" />
<glyph horiz-adv-x="2048" />
<glyph horiz-adv-x="2048" />
<glyph unicode="&#xd;" horiz-adv-x="382" />
<glyph unicode=" "  horiz-adv-x="382" />
<glyph unicode="&#x09;" horiz-adv-x="382" />
<glyph unicode="&#xa0;" horiz-adv-x="382" />
<glyph unicode="!" horiz-adv-x="698" d="M211 1365h277l-70 -997h-137zM235 0v251h228v-251h-228z" />
<glyph unicode="&#x22;" horiz-adv-x="1047" d="M261 1365h210l-32 -560h-145zM575 1365h210l-32 -560h-146z" />
<glyph unicode="#" d="M19 426l23 140h198l45 264h-198l22 139h198l67 396h147l-66 -396h227l66 396h147l-66 -396h198l-23 -139h-198l-45 -264h198l-23 -140h-198l-71 -426h-148l72 426h-227l-72 -426h-147l72 426h-198zM387 566h227l45 264h-227z" />
<glyph unicode="$" d="M93 368l179 61q43 -191 201 -221v407q-330 91 -330 365q0 129 80 234t244 126v135h125v-135q260 -26 333 -276l-161 -67q-33 89 -70 126t-109 56v-376q205 -55 286.5 -148t81.5 -232q0 -153 -92.5 -260.5t-268.5 -124.5v-174h-125v174q-297 33 -374 330zM335 1006 q0 -127 137 -169v339q-137 -35 -137 -170zM585 206q174 26 174 188q0 148 -174 188v-376z" />
<glyph unicode="%" horiz-adv-x="1395" d="M87 1024q0 169 73.5 261t195.5 92q120 0 194 -90.5t74 -262.5q0 -169 -73.5 -261t-194.5 -92t-195 91t-74 262zM246 1024q0 -227 109 -227q110 0 110 227q0 228 -109 228q-110 0 -110 -228zM299 0l666 1365h135l-666 -1365h-135zM771 341q0 170 74 261.5t194 91.5 q121 0 195 -92t74 -261t-73.5 -261t-195.5 -92q-121 0 -194.5 92t-73.5 261zM930 336q0 -222 109 -222q110 0 110 227q0 228 -110 228q-109 0 -109 -233z" />
<glyph unicode="&#x26;" horiz-adv-x="1291" d="M121 377q0 266 297 404q-119 185 -119 314q0 117 89.5 206t232.5 89q144 0 225.5 -84.5t81.5 -211.5q0 -215 -249 -355l233 -336q79 124 120 359l169 -36q-50 -276 -184 -466q74 -92 144 -92q23 0 63 8v-176q-63 -18 -108 -18q-129 0 -235 134q-157 -141 -349 -141 q-198 0 -304.5 117.5t-106.5 284.5zM337 388q0 -107 61.5 -175t161.5 -68q129 0 223 106l-277 403q-169 -101 -169 -266zM498 1100q0 -96 91 -237q159 92 159 233q0 62 -34 101.5t-89 39.5q-53 0 -90 -37t-37 -100z" />
<glyph unicode="'" horiz-adv-x="698" d="M244 1365h210l-32 -560h-145z" />
<glyph unicode="(" horiz-adv-x="523" d="M93 512q0 466 276 853h166q-234 -387 -234 -853q0 -468 234 -854h-166q-276 397 -276 854z" />
<glyph unicode=")" horiz-adv-x="523" d="M-12 -342q234 387 234 854q0 466 -234 853h166q276 -388 276 -853q0 -466 -276 -854h-166z" />
<glyph unicode="*" d="M176 897l236 105l-236 106l71 137l223 -150l-22 270h151l-23 -270l224 150l71 -137l-236 -106l236 -105l-71 -136l-224 149l23 -270h-151l22 270l-223 -149z" />
<glyph unicode="+" d="M104 599v167h332v335h174v-335h331v-167h-331v-335h-174v335h-332z" />
<glyph unicode="," horiz-adv-x="489" d="M120 -289l125 289h-105v258h228v-246l-149 -301h-99z" />
<glyph unicode="-" horiz-adv-x="593" d="M80 429v167h432v-167h-432z" />
<glyph unicode="." horiz-adv-x="489" d="M130 0v258h228v-258h-228z" />
<glyph unicode="/" horiz-adv-x="977" d="M-31 -342l754 1707h156l-754 -1707h-156z" />
<glyph unicode="0" d="M78 666q0 383 114 553.5t331 170.5q445 0 445 -691q0 -382 -113.5 -553t-331.5 -171q-445 0 -445 691zM311 683q0 -326 59 -433t153 -107q107 0 159.5 121.5t52.5 418.5q0 300 -53.5 420t-158.5 120q-104 0 -158 -118.5t-54 -421.5z" />
<glyph unicode="1" d="M232 910v210q176 96 299 260h165v-1212h222v-168h-680v168h237v935q-92 -111 -243 -193z" />
<glyph unicode="2" d="M67 0v196q397 342 506.5 498t109.5 281q0 100 -51.5 164t-139.5 64q-187 0 -222 -276l-203 43q36 206 149.5 313t289.5 107q192 0 301 -113t109 -289q0 -204 -157 -388t-452 -402h617l-10 -198h-847z" />
<glyph unicode="3" d="M40 341l194 46q50 -233 245 -233q89 0 154 58.5t65 185.5q0 100 -59 163.5t-217 63.5h-86v167h86q88 0 134.5 15t80.5 65.5t34 130.5q0 98 -50 156t-139 58q-165 0 -215 -203l-190 44q94 332 421 332q187 0 293.5 -98.5t106.5 -268.5q0 -216 -213 -305q251 -68 251 -335 q0 -190 -124 -299t-319 -109q-175 0 -297.5 86.5t-155.5 279.5z" />
<glyph unicode="4" d="M62 326v166l492 898h260v-891h171v-173h-171v-326h-220v326h-532zM241 491h364v699z" />
<glyph unicode="5" d="M85 327l201 49q47 -214 231 -214q224 0 224 290q0 131 -55.5 204t-162.5 73q-151 0 -214 -150l-170 36l43 750h710l-21 -198h-519l-20 -379q95 127 252 127q171 0 274 -120t103 -335q0 -230 -123.5 -357.5t-326.5 -127.5q-161 0 -278 89t-148 263z" />
<glyph unicode="6" d="M110 651q0 359 126 549t342 190q142 0 247 -79t146 -252l-188 -59q-48 215 -208 215q-128 0 -189.5 -132.5t-67.5 -404.5q89 202 291 202q156 0 265 -120.5t109 -324.5q0 -208 -115.5 -334t-305.5 -126q-201 0 -326.5 164t-125.5 512zM343 428q0 -121 59 -199.5 t159 -78.5q202 0 202 280q0 137 -54 206t-144 69q-108 0 -165 -79.5t-57 -197.5z" />
<glyph unicode="7" d="M144 1167l18 198h788v-159q-170 -218 -271.5 -540t-101.5 -666h-239q0 625 410 1167h-604z" />
<glyph unicode="8" d="M69 347q0 231 254 347q-207 120 -207 322q0 160 109.5 267t309.5 107q192 0 296.5 -97.5t104.5 -250.5q0 -200 -213 -304q255 -123 255 -364q0 -170 -123.5 -284.5t-342.5 -114.5q-216 0 -329.5 103t-113.5 269zM273 361q0 -106 70 -165t179 -59q101 0 169.5 55.5 t68.5 148.5q0 81 -56 142.5t-220 126.5q-211 -89 -211 -249zM333 1048q0 -156 220 -238q186 93 186 229q0 83 -55.5 138.5t-148.5 55.5q-88 0 -145 -51.5t-57 -133.5z" />
<glyph unicode="9" d="M66 932q0 202 116 330t310 128q441 0 441 -645q0 -770 -466 -770q-146 0 -236 67.5t-142 231.5l195 58q44 -182 193 -182q127 0 182.5 133t60.5 381q-91 -180 -279 -180q-157 0 -266 123t-109 325zM284 939q0 -123 55 -195.5t153 -72.5q100 0 154 79t54 193 q0 120 -55.5 196t-151.5 76q-92 0 -150.5 -71.5t-58.5 -204.5z" />
<glyph unicode=":" horiz-adv-x="488" d="M130 0v258h228v-258h-228zM130 752v258h228v-258h-228z" />
<glyph unicode=";" horiz-adv-x="489" d="M120 -289l125 289h-105v258h228v-246l-149 -301h-99zM140 752v258h228v-258h-228z" />
<glyph unicode="&#x3c;" d="M59 584v196l887 441v-230l-641 -310l640 -310l1 -229z" />
<glyph unicode="=" d="M104 459v166h837v-166h-837zM104 740v166h837v-166h-837z" />
<glyph unicode="&#x3e;" d="M100 142v230l642 310l-641 311l-1 228l887 -442v-196z" />
<glyph unicode="?" horiz-adv-x="1012" d="M78 966q38 424 414 424q181 0 286 -102t105 -275q0 -86 -36 -171.5t-169 -194.5q-91 -75 -110.5 -117t-19.5 -112l1 -54h-189l1 42q0 147 23 205t114 136q90 77 124 131.5t34 138.5q0 96 -47.5 145t-129.5 49q-191 0 -207 -283zM343 0v246h223v-246h-223z" />
<glyph unicode="@" horiz-adv-x="1221" d="M15 668q0 323 175 528t459 205q253 0 405.5 -163.5t152.5 -450.5q0 -226 -96.5 -367t-235.5 -141q-122 0 -148 117q-59 -122 -178 -122q-99 0 -160.5 89t-61.5 242q0 192 83.5 320t208.5 128q115 0 162 -126l15 111h120l-59 -423q-13 -95 -13 -135q0 -69 50 -69 q73 0 124 100t51 259q0 245 -115.5 378t-307.5 133q-215 0 -349 -172.5t-134 -435.5q0 -259 137 -422t371 -163q193 0 365 107l46 -110q-208 -118 -418 -118q-290 0 -469.5 188t-179.5 513zM485 608q0 -86 26 -135t69 -49q68 0 104 92t36 214q0 173 -93 173q-62 0 -102 -83 t-40 -212z" />
<glyph unicode="A" horiz-adv-x="1012" d="M-8 0l395 1365h253l366 -1365h-229l-86 342h-399l-84 -342h-216zM337 520h309l-155 625z" />
<glyph unicode="B" horiz-adv-x="1116" d="M131 0v1365h413q156 0 237 -25t137 -111.5t56 -210.5q0 -227 -203 -299q245 -77 245 -343q0 -151 -96.5 -263.5t-369.5 -112.5h-419zM352 181h182q250 0 250 221q0 86 -53 154t-216 68h-163v-443zM352 799h143q151 0 199 55.5t48 143.5q0 103 -55 147.5t-170 44.5h-165 v-391z" />
<glyph unicode="C" horiz-adv-x="1081" d="M85 677q0 345 129 529t372 184q376 0 441 -466l-210 -31q-34 310 -230 310q-262 0 -262 -539q0 -502 262 -502q105 0 156.5 76.5t73.5 220.5l208 -29q-64 -455 -447 -455q-249 0 -371 191t-122 511z" />
<glyph unicode="D" horiz-adv-x="1151" d="M132 0v1365h307q223 0 356.5 -79t202 -235t68.5 -346q0 -200 -61.5 -356.5t-188 -252.5t-360.5 -96h-324zM358 181h94q197 0 286 136.5t89 364.5q0 502 -375 502h-94v-1003z" />
<glyph unicode="E" horiz-adv-x="942" d="M131 0v1365h782v-181h-556v-390h436v-182h-436v-427h565v-185h-791z" />
<glyph unicode="F" horiz-adv-x="872" d="M131 0v1365h758v-181h-532v-408h426v-181h-426v-595h-226z" />
<glyph unicode="G" horiz-adv-x="1152" d="M85 664q0 335 127.5 530.5t391.5 195.5q368 0 440 -416l-204 -51q-36 176 -97 228t-144 52q-275 0 -275 -519q0 -522 282 -522q234 0 234 357h-245v181h456v-710h-120l-30 173q-104 -188 -329 -188q-229 0 -358 185.5t-129 503.5z" />
<glyph unicode="H" horiz-adv-x="1116" d="M131 0v1365h226v-566h402v566h226v-1365h-226v608h-402v-608h-226z" />
<glyph unicode="I" horiz-adv-x="488" d="M131 0v1365h226v-1365h-226z" />
<glyph unicode="J" horiz-adv-x="628" d="M-33 0v187q70 -19 132 -19q73 0 110.5 27t52 82.5t14.5 238.5v849h226v-849q0 -211 -24 -314t-103 -165t-227 -62q-76 0 -181 25z" />
<glyph unicode="K" horiz-adv-x="1047" d="M131 0v1365h226v-651l412 651h239l-352 -501l412 -864h-245l-305 677l-161 -229v-448h-226z" />
<glyph unicode="L" horiz-adv-x="837" d="M131 0v1365h226v-1174h483v-191h-709z" />
<glyph unicode="M" horiz-adv-x="1465" d="M126 0v1365h335l272 -984l279 984h321v-1365h-212v1165l-324 -1165h-164l-318 1166v-1166h-189z" />
<glyph unicode="N" horiz-adv-x="1151" d="M124 0v1365h266l449 -984v984h189v-1365h-211l-504 1093v-1093h-189z" />
<glyph unicode="O" horiz-adv-x="1152" d="M86 683q0 348 126 527.5t366 179.5q237 0 363 -178.5t126 -528.5t-125 -529t-363 -179q-239 0 -366 178.5t-127 529.5zM323 683q0 -238 55 -380t201 -142q137 0 194 137.5t57 384.5q0 243 -56.5 382.5t-197.5 139.5t-197 -140t-56 -382z" />
<glyph unicode="P" horiz-adv-x="1012" d="M131 0v1365h338q162 0 263 -30.5t170 -135t69 -251.5q0 -135 -56 -232t-150.5 -140t-290.5 -43h-117v-533h-226zM357 714h112q150 0 207.5 56t57.5 182q0 94 -38 152.5t-83.5 72t-143.5 13.5h-112v-476z" />
<glyph unicode="Q" horiz-adv-x="1151" d="M85 683q0 348 126 527.5t366 179.5q239 0 364 -179.5t125 -527.5q0 -549 -312 -673q0 -75 25.5 -111t108.5 -36q49 0 103 18v-172q-63 -24 -133 -24q-279 0 -281 292q-228 0 -360 170t-132 536zM323 683q0 -248 56.5 -385t195.5 -137q141 0 196.5 138.5t55.5 383.5 q0 176 -28 296t-82.5 173t-141.5 53q-139 0 -195.5 -137t-56.5 -385z" />
<glyph unicode="R" horiz-adv-x="1081" d="M131 0v1365h411q223 0 329 -101t106 -290q0 -252 -209 -357l259 -617h-245l-213 570h-212v-570h-226zM357 745h173q116 0 170.5 64t54.5 167q0 214 -223 214h-175v-445z" />
<glyph unicode="S" horiz-adv-x="1047" d="M48 357l202 57q53 -252 276 -252q109 0 165.5 56.5t56.5 139.5q0 61 -39 113t-194 111q-164 62 -236.5 105t-123.5 127t-51 191q0 163 113.5 274t301.5 111q333 0 425 -330l-193 -67q-34 108 -89.5 159.5t-151.5 51.5q-89 0 -137.5 -52.5t-48.5 -120.5q0 -75 54.5 -119.5 t217.5 -106.5q139 -53 214 -101t121.5 -128.5t46.5 -186.5q0 -172 -121.5 -293t-340.5 -121q-378 0 -468 382z" />
<glyph unicode="T" horiz-adv-x="768" d="M-32 1173v192h833v-192h-305v-1173h-226v1173h-302z" />
<glyph unicode="U" horiz-adv-x="1116" d="M121 518v847h221v-847q0 -142 15 -209.5t68.5 -107t144.5 -39.5q86 0 134 32.5t68 92t20 235.5v843h203v-832q0 -200 -28.5 -308t-132 -179t-277.5 -71q-135 0 -234.5 44.5t-150.5 144t-51 354.5z" />
<glyph unicode="V" horiz-adv-x="942" d="M-8 1365h238l259 -1089l260 1089h200l-360 -1368l-245 3z" />
<glyph unicode="W" horiz-adv-x="1430" d="M5 1365h229l185 -1022l214 1022h196l212 -1023l194 1023h191l-287 -1368h-204l-216 1002l-212 -1002h-208z" />
<glyph unicode="X" horiz-adv-x="907" d="M-28 0l365 707l-321 658h251l196 -435l218 435h211l-316 -620l359 -745h-254l-232 523l-263 -523h-214z" />
<glyph unicode="Y" horiz-adv-x="837" d="M-65 1365h245l251 -569l255 569h216l-379 -788v-577h-225v577z" />
<glyph unicode="Z" horiz-adv-x="872" d="M1 0v175l599 1005h-562v185h819v-158l-604 -1017h620v-190h-872z" />
<glyph unicode="[" horiz-adv-x="523" d="M147 -342v1707h354v-115h-160v-1477h160v-115h-354z" />
<glyph unicode="\" horiz-adv-x="977" d="M98 1365h156l754 -1707h-156z" />
<glyph unicode="]" horiz-adv-x="523" d="M22 -227h161v1477h-161v115h354v-1707h-354v115z" />
<glyph unicode="^" horiz-adv-x="1024" d="M22 703l338 669h305l338 -669h-244l-247 484l-246 -484h-244z" />
<glyph unicode="_" horiz-adv-x="1024" d="M0 -107h1024v-208h-1024v208z" />
<glyph unicode="`" horiz-adv-x="1024" d="M237 1353l108 136l321 -281l-76 -77z" />
<glyph unicode="a" horiz-adv-x="942" d="M72 267q0 165 113.5 261t393.5 96q14 0 44 -1v41q0 108 -32.5 163t-116.5 55q-137 0 -164 -158l-201 25q20 135 124.5 210t256.5 75q136 0 217.5 -54.5t102.5 -129.5t21 -227v-344q0 -209 18 -279h-197q-13 55 -13 168q-95 -193 -284 -193q-128 0 -205.5 78.5 t-77.5 213.5zM290 283q0 -155 135 -155q79 0 138.5 84t59.5 231v49q-40 4 -61 4q-272 0 -272 -213z" />
<glyph unicode="b" horiz-adv-x="977" d="M122 0v1365h207v-471q89 134 235 134q158 0 249.5 -134.5t91.5 -362.5q0 -552 -374 -552q-176 0 -245 158q-23 -57 -46 -137h-118zM329 427q0 -291 178 -291q92 0 134 88t42 295q0 199 -42 277.5t-130 78.5q-77 0 -129.5 -70t-52.5 -189v-189z" />
<glyph unicode="c" horiz-adv-x="837" d="M73 502q0 260 101 396t294 136q311 0 355 -364l-201 -22q-15 132 -51 176.5t-102 44.5q-93 0 -135 -85.5t-42 -300.5q0 -336 177 -336q136 0 153 219l201 -18q-41 -373 -369 -373q-194 0 -287.5 140t-93.5 387z" />
<glyph unicode="d" horiz-adv-x="977" d="M72 500q0 249 94.5 388t251.5 139q165 0 231 -134v472h207v-1365h-191v153q-73 -171 -251 -171q-171 0 -256.5 143t-85.5 375zM294 519q0 -380 176 -380q68 0 123.5 63t55.5 219v173q0 156 -59 218.5t-122 62.5q-174 0 -174 -356z" />
<glyph unicode="e" horiz-adv-x="907" d="M73 490q0 260 110 402t294 142q129 0 217 -71t124 -186.5t39 -302.5h-571q0 -205 55.5 -273.5t139.5 -68.5q140 0 177 189l190 -25q-75 -321 -374 -321q-183 0 -292 131t-109 384zM291 615h353q0 267 -174 267q-163 0 -179 -267z" />
<glyph unicode="f" horiz-adv-x="523" d="M20 842v168h132q3 180 31 248.5t91.5 107.5t172.5 39q63 0 123 -12v-166q-43 7 -79 7q-62 0 -91.5 -23t-36.5 -58.5t-7 -142.5h181v-168h-181v-842h-204v842h-132z" />
<glyph unicode="g" horiz-adv-x="907" d="M55 -119q0 146 147 195q-110 61 -110 165q0 132 149 203q-130 86 -130 259q0 148 99 239.5t255 91.5q102 0 191 -44q16 105 60.5 145.5t129.5 40.5q25 0 62 -5v-153q-29 6 -48 6q-92 0 -109 -111q76 -96 76 -217q0 -137 -95 -231t-256 -94q-61 0 -128 18q-76 -29 -76 -88 q0 -51 40.5 -66t214.5 -24q150 -8 226 -28t121.5 -81.5t45.5 -161.5q0 -154 -119 -233.5t-339 -79.5q-212 0 -309.5 69.5t-97.5 184.5zM244 -87q0 -72 56 -106t186 -34q240 0 240 139q0 68 -45.5 93.5t-179.5 29.5q-113 4 -170 7q-87 -43 -87 -129zM326 697q0 -194 144 -194 q142 0 142 196q0 198 -137 198q-149 0 -149 -200z" />
<glyph unicode="h" horiz-adv-x="942" d="M122 0v1365h209v-489q71 158 241 158q87 0 146.5 -40t83 -106.5t23.5 -251.5v-636h-208v636q0 158 -36 194.5t-89 36.5q-161 0 -161 -289v-578h-209z" />
<glyph unicode="i" horiz-adv-x="454" d="M118 1146v221h218v-221h-218zM123 0v1010h208v-1010h-208z" />
<glyph unicode="j" horiz-adv-x="454" d="M-52 -175q40 -10 75 -10q69 0 86.5 39t17.5 185v971h208v-974q0 -155 -15 -229t-75.5 -122t-168.5 -48q-58 0 -128 15v173zM122 1146v221h219v-221h-219z" />
<glyph unicode="k" horiz-adv-x="872" d="M122 0v1365h209v-807l326 452h206l-261 -349l290 -661h-225l-202 506l-134 -185v-321h-209z" />
<glyph unicode="l" horiz-adv-x="454" d="M123 0v1365h209v-1365h-209z" />
<glyph unicode="m" horiz-adv-x="1430" d="M122 0v1010h193v-154q74 178 249 178q192 0 231 -188q71 188 256 188q92 0 153.5 -40t85.5 -106t24 -249v-639h-209v622q0 143 -24.5 194t-98.5 51q-158 0 -158 -275v-592h-209v615q0 131 -10.5 169.5t-39 60.5t-73.5 22q-87 0 -124 -65.5t-37 -214.5v-587h-209z" />
<glyph unicode="n" horiz-adv-x="942" d="M123 0v1010h193v-156q70 180 250 180q102 0 164.5 -49t79 -117.5t16.5 -216.5v-651h-208v640q0 132 -23 179.5t-98 47.5q-78 0 -121.5 -60.5t-43.5 -240.5v-566h-209z" />
<glyph unicode="o" horiz-adv-x="942" d="M73 505q0 529 400 529q182 0 288.5 -129t106.5 -390q0 -540 -400 -540q-184 0 -289.5 130.5t-105.5 399.5zM295 505q0 -190 41 -281t135 -91q93 0 134.5 92.5t41.5 279.5q0 213 -47.5 292.5t-128.5 79.5q-176 0 -176 -372z" />
<glyph unicode="p" horiz-adv-x="977" d="M122 -342v1352h192v-166q79 183 250 183q153 0 247 -133.5t94 -380.5q0 -221 -85.5 -376t-265.5 -155q-144 0 -225 123v-447h-207zM329 422q0 -97 14.5 -151.5t59.5 -93t102 -38.5q178 0 178 374q0 362 -174 362q-77 0 -128.5 -74t-51.5 -211v-168z" />
<glyph unicode="q" horiz-adv-x="977" d="M72 487q0 275 100 408t257 133q167 0 247 -168q34 62 65 157h114q-4 -84 -4 -235v-1124h-209v471q-83 -147 -236 -147q-142 0 -238 127t-96 378zM293 510q0 -371 172 -371q69 0 123 80t54 243v131q0 135 -51.5 208.5t-124.5 73.5q-87 0 -130 -84.5t-43 -280.5z" />
<glyph unicode="r" horiz-adv-x="558" d="M123 0v1010h184v-226q84 247 252 247q16 0 38 -3v-217q-26 3 -42 3q-223 0 -223 -300v-514h-209z" />
<glyph unicode="s" horiz-adv-x="803" d="M34 269l177 33q34 -174 193 -174q81 0 120.5 40t39.5 95q0 38 -27 75.5t-151 77.5q-119 38 -179.5 71t-99.5 95.5t-39 141.5q0 129 94 219.5t243 90.5q253 0 326 -260l-163 -44q-45 152 -171 152q-58 0 -93.5 -36t-35.5 -89q0 -60 36 -88t165 -70q159 -53 229 -119.5 t70 -185.5q0 -134 -100 -226.5t-270 -92.5q-321 0 -364 294z" />
<glyph unicode="t" horiz-adv-x="558" d="M12 842v168h137l11 263l188 18v-281h193v-168h-193v-446q0 -118 6 -156.5t36 -63t100 -24.5q37 0 84 7v-166q-84 -18 -156 -18q-117 0 -179 45.5t-79 123.5t-17 238v460h-131z" />
<glyph unicode="u" horiz-adv-x="943" d="M116 364v646h209v-642q0 -134 22 -179.5t97 -45.5q93 0 130 81t37 300v486h208v-1010h-191v152q-81 -177 -257 -177q-90 0 -147.5 38t-82.5 108t-25 243z" />
<glyph unicode="v" horiz-adv-x="733" d="M-11 1010h205l189 -725l185 725h181l-286 -1010h-185z" />
<glyph unicode="w" horiz-adv-x="1151" d="M-2 1010h205l150 -694l145 694h183l144 -698l160 698h169l-250 -1010h-177l-153 700l-146 -700h-177z" />
<glyph unicode="x" horiz-adv-x="733" d="M-35 0l293 524l-261 486h231l148 -294l154 294h194l-255 -457l298 -553h-232l-183 357l-190 -357h-197z" />
<glyph unicode="y" horiz-adv-x="733" d="M-1 1010h209l176 -694l181 694h188l-328 -1074q-36 -117 -66 -173t-85 -90.5t-142 -34.5q-52 0 -107 14v166q40 -7 73 -7q81 0 115 39.5t73 183.5z" />
<glyph unicode="z" horiz-adv-x="698" d="M30 0v158l410 694h-374v158h614v-127l-425 -725h429v-158h-654z" />
<glyph unicode="{" horiz-adv-x="523" d="M73 452v143q72 0 90.5 38t18.5 193v220q0 195 64 258t188 63q18 0 64 -2v-119q-79 -1 -101 -33.5t-22 -166.5v-216q0 -178 -22 -228t-103 -78q80 -29 102.5 -79t22.5 -228v-240q0 -133 21.5 -166.5t101.5 -33.5v-119q-54 -2 -60 -2q-136 0 -196 67.5t-60 253.5v244 q0 153 -18 192t-91 39z" />
<glyph unicode="|" horiz-adv-x="1024" d="M396 -341v1706h232v-1706h-232z" />
<glyph unicode="}" horiz-adv-x="523" d="M25 -223q79 0 101 33t22 167v240q0 177 21.5 227t103.5 80q-80 28 -102.5 78t-22.5 228v216q0 133 -22 165.5t-101 34.5v119q54 2 59 2q140 0 198.5 -70t58.5 -251v-220q0 -121 5 -155t30 -55t74 -21v-143q-49 0 -73.5 -20.5t-30 -54.5t-5.5 -156v-244q0 -195 -64 -258 t-188 -63q-18 0 -64 2v119z" />
<glyph unicode="~" horiz-adv-x="1365" d="M187 564q72 163 142 211.5t154 48.5q73 0 220 -61q136 -57 188 -57q99 0 166 122l121 -70q-112 -252 -314 -252q-62 0 -239 72q-113 46 -158 46q-95 0 -163 -137z" />
<glyph unicode="&#xa2;" d="M168 677q0 205 77.5 343t238.5 158v187h119v-187q246 -33 286 -335l-176 -23q-16 159 -115 204v-650q96 37 115 201l176 -23q-38 -301 -286 -340v-223h-119v223q-160 24 -238 157t-78 308zM369 702q0 -262 120 -324v639q-120 -56 -120 -315z" />
<glyph unicode="&#xa3;" d="M40 0v180h70q83 0 135 28t87 94t35 170q0 73 -15 165h-197v162h171q-23 140 -23 215q0 168 95.5 272t267.5 104q240 0 328 -218l-161 -99q-53 145 -166 145q-147 0 -147 -204q0 -46 14 -138l11 -77h260v-162h-239q8 -56 8 -106q0 -232 -168 -353h153q157 0 229 39 t120 144l162 -85q-48 -124 -108 -180t-145 -76t-258 -20h-519z" />
<glyph unicode="&#xa5;" d="M55 1365h230l252 -612l260 612h193l-252 -544h227v-126h-283l-61 -140h344v-125h-344v-430h-203v430h-322v125h321l-64 140h-257v126h204z" />
<glyph unicode="&#xa7;" d="M119 -43l185 33q38 -185 222 -185q97 0 148.5 47t51.5 128t-51 123.5t-207 102.5q-169 65 -240.5 133.5t-71.5 191.5q0 177 165 286q-123 96 -123 255q0 140 95 229t253 89q297 0 366 -266l-173 -40q-44 160 -190 160q-78 0 -117.5 -44t-39.5 -107q0 -71 41 -108t189 -98 q157 -64 223.5 -131.5t66.5 -190.5q0 -159 -145 -276q157 -102 157 -283q0 -158 -110 -258t-291 -100q-334 0 -404 309zM339 583q0 -54 35 -98.5t182 -99.5q69 -26 83 -32q96 72 96 164q0 47 -35 93.5t-262 140.5q-99 -75 -99 -168z" />
<glyph unicode="&#xa8;" horiz-adv-x="1024" d="M244 1265q0 44 32.5 74t76.5 30q43 0 76 -29t33 -75q0 -45 -34 -73.5t-75 -28.5q-40 0 -74.5 28t-34.5 74zM562 1265q0 43 32.5 73.5t76.5 30.5t76.5 -30t32.5 -74q0 -46 -34 -74t-75 -28t-75 28.5t-34 73.5z" />
<glyph unicode="&#xa9;" horiz-adv-x="1600" d="M86 683q0 291 210 499t504 208t504 -208.5t210 -498.5q0 -291 -209.5 -499.5t-504.5 -208.5q-296 0 -505 207.5t-209 500.5zM235 683q0 -238 165.5 -405t399.5 -167q233 0 399 168t166 404q0 235 -166 403t-399 168t-399 -168t-166 -403zM484 678q0 207 86.5 318 t247.5 111q262 0 298 -293l-162 -21q-20 183 -135 183q-154 0 -154 -304q0 -282 154 -282q64 0 93.5 45t42.5 129l160 -19q-41 -286 -301 -286q-152 0 -241 106t-89 313z" />
<glyph unicode="&#xab;" horiz-adv-x="802" d="M89 525l193 320h117l-108 -320l108 -320h-117zM403 525l193 328h117l-108 -328l108 -327h-117z" />
<glyph unicode="&#xad;" horiz-adv-x="593" d="M80 429v167h432v-167h-432z" />
<glyph unicode="&#xae;" horiz-adv-x="1600" d="M86 683q0 291 210 499t504 208t504 -208.5t210 -498.5q0 -291 -209.5 -499.5t-504.5 -208.5q-296 0 -505 207.5t-209 500.5zM235 683q0 -238 165.5 -405t399.5 -167q233 0 399 168t166 404q0 235 -166 403t-399 168t-399 -168t-166 -403zM524 273v819h276q293 0 293 -239 q0 -147 -131 -213l169 -367h-186l-137 333h-112v-333h-172zM696 730h97q130 0 130 126q0 112 -129 112h-98v-238z" />
<glyph unicode="&#xb0;" d="M204 1071q0 132 94 225.5t225 93.5q130 0 225 -92.5t95 -226.5q0 -132 -94.5 -225.5t-225.5 -93.5t-225 93.5t-94 225.5zM364 1071q0 -77 47.5 -130t111.5 -53q65 0 112 53t47 130q0 79 -47.5 131t-111.5 52q-65 0 -112 -53.5t-47 -129.5z" />
<glyph unicode="&#xb4;" horiz-adv-x="1024" d="M414 1208l321 281l108 -136l-353 -222z" />
<glyph unicode="&#xb6;" d="M33 970q0 131 50 224t129 132t247 39h446v-1707h-137v1570h-101v-1570h-137v914h-77q-142 0 -226 32.5t-139 128t-55 237.5z" />
<glyph unicode="&#xb7;" horiz-adv-x="489" d="M130 397v258h228v-258h-228z" />
<glyph unicode="&#xb8;" horiz-adv-x="1024" d="M346 -345l28 73q82 -37 150 -37q81 0 81 63q0 78 -122 78q-16 0 -61 -2l58 170h98l-33 -95h28q91 0 133 -44.5t42 -102.5q0 -70 -56.5 -118t-148.5 -48q-98 0 -197 63z" />
<glyph unicode="&#xbb;" horiz-adv-x="802" d="M89 198l108 327l-108 328h117l193 -328l-193 -327h-117zM403 198l108 327l-108 328h118l192 -328l-192 -327h-118z" />
<glyph unicode="&#x192;" d="M83 -294l28 174q36 -5 62 -5q97 0 131 51.5t60 213.5l102 634h-163l25 168h163q46 281 137.5 365.5t235.5 84.5q51 0 115 -13l-26 -167q-26 9 -62 9q-95 0 -134.5 -56.5t-65.5 -222.5h206l-25 -168h-208l-103 -648q-39 -243 -120.5 -336.5t-251.5 -93.5q-53 0 -106 10z " />
<glyph unicode="&#x2c6;" horiz-adv-x="1024" d="M155 1152l357 275l358 -275l-178 -14l-180 122l-179 -122z" />
<glyph unicode="&#x2da;" horiz-adv-x="1024" d="M324 1301q0 80 56 135t132 55t132 -55t56 -135q0 -81 -58.5 -134t-129.5 -53q-70 0 -129 52.5t-59 134.5zM426 1302q0 -38 26.5 -62.5t59.5 -24.5t59.5 24.5t26.5 61.5q0 38 -25.5 64t-60.5 26q-34 0 -60 -25.5t-26 -63.5z" />
<glyph unicode="&#x2dc;" horiz-adv-x="1024" d="M203 1227q90 153 202 153q51 0 129 -45q74 -41 111 -41q48 0 91 75l85 -57q-89 -153 -204 -153q-53 0 -130 45q-70 40 -102 40q-49 0 -98 -74z" />
<glyph unicode="&#x401;" horiz-adv-x="942" d="M131 0v1365h782v-181h-556v-390h436v-182h-436v-427h565v-185h-791zM254 1614q0 44 32.5 74t76.5 30q43 0 76 -29t33 -75q0 -45 -34 -73.5t-75 -28.5q-40 0 -74.5 28t-34.5 74zM572 1614q0 43 32.5 73.5t76.5 30.5t76.5 -30t32.5 -74q0 -46 -34 -74t-75 -28t-75 28.5 t-34 73.5z" />
<glyph unicode="&#x402;" horiz-adv-x="1056" d="M-18 1184v181h820v-181h-410v-420q93 146 276 146q123 0 194 -54.5t98 -165t27 -389.5q0 -344 -46 -460.5t-129 -158t-222 -44.5v167q111 6 143 99t32 379q0 313 -40 391t-123 78q-85 0 -147.5 -72.5t-62.5 -237.5v-442h-225v1184h-185z" />
<glyph unicode="&#x403;" horiz-adv-x="769" d="M131 0v1365h662v-190h-437v-1175h-225zM278 1557l321 281l108 -136l-353 -222z" />
<glyph unicode="&#x404;" horiz-adv-x="1061" d="M86 677q0 330 123 521.5t378 191.5q339 0 425 -373l-203 -63q-38 249 -222 249q-249 0 -267 -411h403v-170h-406q12 -460 271 -460q100 0 151.5 69.5t75.5 206.5l205 -47q-76 -416 -441 -416q-249 0 -371 191t-122 511z" />
<glyph unicode="&#x405;" horiz-adv-x="1047" d="M48 357l202 57q53 -252 276 -252q109 0 165.5 56.5t56.5 139.5q0 61 -39 113t-194 111q-164 62 -236.5 105t-123.5 127t-51 191q0 163 113.5 274t301.5 111q333 0 425 -330l-193 -67q-34 108 -89.5 159.5t-151.5 51.5q-89 0 -137.5 -52.5t-48.5 -120.5q0 -75 54.5 -119.5 t217.5 -106.5q139 -53 214 -101t121.5 -128.5t46.5 -186.5q0 -172 -121.5 -293t-340.5 -121q-378 0 -468 382z" />
<glyph unicode="&#x406;" horiz-adv-x="488" d="M131 0v1365h226v-1365h-226z" />
<glyph unicode="&#x407;" horiz-adv-x="488" d="M-24 1614q0 44 32.5 74t76.5 30q43 0 76 -29t33 -75q0 -45 -34 -73.5t-75 -28.5q-40 0 -74.5 28t-34.5 74zM131 0v1365h226v-1365h-226zM294 1614q0 43 32.5 73.5t76.5 30.5t76.5 -30t32.5 -74q0 -46 -34 -74t-75 -28t-75 28.5t-34 73.5z" />
<glyph unicode="&#x408;" horiz-adv-x="628" d="M-33 0v187q70 -19 132 -19q73 0 110.5 27t52 82.5t14.5 238.5v849h226v-849q0 -211 -24 -314t-103 -165t-227 -62q-76 0 -181 25z" />
<glyph unicode="&#x409;" horiz-adv-x="1472" d="M-33 0l369 1365h278l110 -529h269q174 0 252.5 -40.5t128 -136.5t49.5 -240q0 -136 -47 -229.5t-129 -141.5t-210 -48h-378l-204 1134l-280 -1134h-208zM761 655l97 -465h163q77 0 128.5 53.5t51.5 179.5q0 127 -54 179.5t-126 52.5h-260z" />
<glyph unicode="&#x40a;" horiz-adv-x="1634" d="M131 0v1365h225v-550h377v550h225v-550h208q164 0 244.5 -41.5t127.5 -133t47 -229.5q0 -189 -96.5 -300t-278.5 -111h-477v634h-377v-634h-225zM958 190h224q74 0 127.5 54t53.5 172q0 104 -47.5 161t-133.5 57h-224v-444z" />
<glyph unicode="&#x40b;" horiz-adv-x="1093" d="M-18 1184v181h824v-181h-414v-413q96 140 263 140q328 0 328 -441v-470h-225v481q0 258 -161 258q-69 0 -126 -47.5t-79 -136.5v-555h-225v1184h-185z" />
<glyph unicode="&#x40c;" horiz-adv-x="1047" d="M131 0v1365h226v-651l412 651h239l-352 -501l412 -864h-245l-305 677l-161 -229v-448h-226zM416 1557l321 281l108 -136l-353 -222z" />
<glyph unicode="&#x40e;" horiz-adv-x="873" d="M-21 1365h231l261 -695l226 695h204l-348 -1032q-65 -193 -135 -263t-208 -70h-93v195h93q28 0 69.5 19t79.5 131l17 50zM170 1738h140q31 -112 167 -112q134 0 165 112h141q-51 -244 -306 -244q-256 0 -307 244z" />
<glyph unicode="&#x40f;" horiz-adv-x="1108" d="M131 0v1365h225v-1175h396v1175h225v-1365h-328l-16 -291h-157l-17 291h-328z" />
<glyph unicode="&#x410;" horiz-adv-x="1012" d="M-8 0l395 1365h253l366 -1365h-229l-86 342h-399l-84 -342h-216zM337 520h309l-155 625z" />
<glyph unicode="&#x411;" horiz-adv-x="1071" d="M131 0v1365h723v-181h-498v-346h193q160 0 244.5 -36t140 -142t55.5 -255q0 -191 -99.5 -298t-283.5 -107h-475zM356 190h226q69 0 127 51t58 177q0 239 -206 239h-205v-467z" />
<glyph unicode="&#x412;" horiz-adv-x="1116" d="M131 0v1365h413q156 0 237 -25t137 -111.5t56 -210.5q0 -227 -203 -299q245 -77 245 -343q0 -151 -96.5 -263.5t-369.5 -112.5h-419zM352 181h182q250 0 250 221q0 86 -53 154t-216 68h-163v-443zM352 799h143q151 0 199 55.5t48 143.5q0 103 -55 147.5t-170 44.5h-165 v-391z" />
<glyph unicode="&#x413;" horiz-adv-x="769" d="M131 0v1365h662v-190h-437v-1175h-225z" />
<glyph unicode="&#x414;" horiz-adv-x="1094" d="M21 190h78l297 1175h332l269 -1175h77v-481h-157l-26 291h-688l-25 -291h-157v481zM302 190h460l-192 944h-55z" />
<glyph unicode="&#x415;" horiz-adv-x="942" d="M131 0v1365h782v-181h-556v-390h436v-182h-436v-427h565v-185h-791z" />
<glyph unicode="&#x416;" horiz-adv-x="1366" d="M-21 0l385 712l-355 653h234l314 -582l23 -11v593h209v-593l23 11l314 582h212l-332 -582l412 -783h-238l-344 649l-47 -23v-626h-209v626l-48 23l-342 -649h-211z" />
<glyph unicode="&#x417;" horiz-adv-x="1032" d="M49 384l204 39q43 -262 253 -262q102 0 154.5 68.5t52.5 167.5q0 115 -52.5 172t-130.5 57h-109v162h109q56 0 110.5 51.5t54.5 158.5q0 95 -55 150.5t-144 55.5q-183 0 -221 -225l-195 31q58 380 425 380q199 0 305.5 -103.5t106.5 -255.5q0 -219 -218 -306 q251 -73 251 -322q0 -182 -112.5 -305t-331.5 -123q-401 0 -457 409z" />
<glyph unicode="&#x418;" horiz-adv-x="1144" d="M131 0v1365h225v-766q0 -14 -7 -189q41 118 118 254l321 568v133h225v-1365h-225v708q0 10 7 235q-43 -117 -120 -255l-319 -567v-121h-225z" />
<glyph unicode="&#x419;" horiz-adv-x="1144" d="M131 0v1365h225v-766q0 -14 -7 -189q41 118 118 254l321 568v133h225v-1365h-225v708q0 10 7 235q-43 -117 -120 -255l-319 -567v-121h-225zM272 1738h140q31 -112 167 -112q134 0 165 112h141q-51 -244 -306 -244q-256 0 -307 244z" />
<glyph unicode="&#x41a;" horiz-adv-x="1047" d="M131 0v1365h226v-651l412 651h239l-352 -501l412 -864h-245l-305 677l-161 -229v-448h-226z" />
<glyph unicode="&#x41b;" horiz-adv-x="933" d="M-33 0l369 1365h278l351 -1365h-238l-272 1134l-280 -1134h-208z" />
<glyph unicode="&#x41c;" horiz-adv-x="1465" d="M126 0v1365h335l272 -984l279 984h321v-1365h-212v1165l-324 -1165h-164l-318 1166v-1166h-189z" />
<glyph unicode="&#x41d;" horiz-adv-x="1116" d="M131 0v1365h226v-566h402v566h226v-1365h-226v608h-402v-608h-226z" />
<glyph unicode="&#x41e;" horiz-adv-x="1152" d="M86 683q0 348 126 527.5t366 179.5q237 0 363 -178.5t126 -528.5t-125 -529t-363 -179q-239 0 -366 178.5t-127 529.5zM323 683q0 -238 55 -380t201 -142q137 0 194 137.5t57 384.5q0 243 -56.5 382.5t-197.5 139.5t-197 -140t-56 -382z" />
<glyph unicode="&#x41f;" horiz-adv-x="1086" d="M131 0v1365h824v-1365h-226v1184h-373v-1184h-225z" />
<glyph unicode="&#x420;" horiz-adv-x="1012" d="M131 0v1365h338q162 0 263 -30.5t170 -135t69 -251.5q0 -135 -56 -232t-150.5 -140t-290.5 -43h-117v-533h-226zM357 714h112q150 0 207.5 56t57.5 182q0 94 -38 152.5t-83.5 72t-143.5 13.5h-112v-476z" />
<glyph unicode="&#x421;" horiz-adv-x="1081" d="M85 677q0 345 129 529t372 184q376 0 441 -466l-210 -31q-34 310 -230 310q-262 0 -262 -539q0 -502 262 -502q105 0 156.5 76.5t73.5 220.5l208 -29q-64 -455 -447 -455q-249 0 -371 191t-122 511z" />
<glyph unicode="&#x422;" horiz-adv-x="768" d="M-32 1173v192h833v-192h-305v-1173h-226v1173h-302z" />
<glyph unicode="&#x423;" horiz-adv-x="873" d="M-21 1365h231l261 -695l226 695h204l-348 -1032q-65 -193 -135 -263t-208 -70h-93v195h93q28 0 69.5 19t79.5 131l17 50z" />
<glyph unicode="&#x424;" horiz-adv-x="1294" d="M86 676q0 253 127 398t339 165v169h190v-169q225 -24 345.5 -172t120.5 -383q0 -485 -466 -556v-170h-190v170q-237 25 -351.5 176t-114.5 372zM308 676q0 -323 244 -384v783q-244 -58 -244 -399zM742 292q244 59 244 399q0 323 -244 384v-783z" />
<glyph unicode="&#x425;" horiz-adv-x="907" d="M-28 0l365 707l-321 658h251l196 -435l218 435h211l-316 -620l359 -745h-254l-232 523l-263 -523h-214z" />
<glyph unicode="&#x426;" horiz-adv-x="1121" d="M131 0v1365h225v-1175h396v1175h226v-1175h143v-481h-157l-27 291h-806z" />
<glyph unicode="&#x427;" horiz-adv-x="1055" d="M98 890v475h225v-487q0 -140 38 -194t117 -54q122 0 221 124v611h225v-1365h-225v573q-105 -128 -269 -128q-103 0 -180.5 50t-114.5 138.5t-37 256.5z" />
<glyph unicode="&#x428;" horiz-adv-x="1593" d="M131 0v1365h225v-1175h328v1175h225v-1175h328v1175h225v-1365h-1331z" />
<glyph unicode="&#x429;" horiz-adv-x="1606" d="M131 0v1365h225v-1175h328v1175h225v-1175h328v1175h225v-1175h144v-481h-157l-28 291h-1290z" />
<glyph unicode="&#x42a;" horiz-adv-x="1122" d="M-49 1175v190h504v-529h189q160 0 243 -36.5t135 -135.5t52 -243q0 -188 -94.5 -304.5t-291.5 -116.5h-458v1175h-279zM455 190h217q77 0 128 54t51 179q0 128 -53.5 180t-125.5 52h-217v-465z" />
<glyph unicode="&#x42b;" horiz-adv-x="1443" d="M131 0v1365h225v-529h190q154 0 238.5 -34.5t137.5 -136t53 -243.5q0 -189 -94.5 -305.5t-291.5 -116.5h-458zM356 190h218q77 0 128 54t51 179q0 127 -53.5 179.5t-125.5 52.5h-218v-465zM1086 0v1365h226v-1365h-226z" />
<glyph unicode="&#x42c;" horiz-adv-x="1024" d="M131 0v1365h225v-529h190q154 0 238.5 -34.5t137.5 -136t53 -243.5q0 -189 -94.5 -305.5t-291.5 -116.5h-458zM356 190h218q77 0 128 54t51 179q0 127 -53.5 179.5t-125.5 52.5h-218v-465z" />
<glyph unicode="&#x42d;" horiz-adv-x="1061" d="M41 391l206 47q24 -140 75.5 -208t148.5 -68q260 0 273 460h-406v170h403q-18 411 -267 411q-184 0 -222 -249l-203 63q86 373 426 373q256 0 378 -194.5t122 -511.5q0 -328 -122.5 -518.5t-370.5 -190.5q-365 0 -441 416z" />
<glyph unicode="&#x42e;" horiz-adv-x="1610" d="M131 0v1365h225v-558h193q47 583 487 583q239 0 363.5 -179.5t124.5 -527.5q0 -350 -125 -529t-363 -179q-465 0 -491 650h-189v-625h-225zM781 682q0 -242 56 -381.5t197 -139.5q142 0 197.5 139.5t55.5 381.5q0 167 -26.5 287.5t-81 177.5t-145.5 57 q-141 0 -197 -138.5t-56 -383.5z" />
<glyph unicode="&#x42f;" horiz-adv-x="1081" d="M54 0h245l213 570h212v-570h226v1365h-411q-223 0 -329 -101t-106 -290q0 -252 209 -357zM326 976q0 214 223 214h175v-445h-173q-116 0 -170.5 64t-54.5 167z" />
<glyph unicode="&#x430;" horiz-adv-x="942" d="M72 267q0 165 113.5 261t393.5 96q14 0 44 -1v41q0 108 -32.5 163t-116.5 55q-137 0 -164 -158l-201 25q20 135 124.5 210t256.5 75q136 0 217.5 -54.5t102.5 -129.5t21 -227v-344q0 -209 18 -279h-197q-13 55 -13 168q-95 -193 -284 -193q-128 0 -205.5 78.5 t-77.5 213.5zM290 283q0 -155 135 -155q79 0 138.5 84t59.5 231v49q-40 4 -61 4q-272 0 -272 -213z" />
<glyph unicode="&#x431;" horiz-adv-x="944" d="M74 549q0 700 349 792q92 24 117 43.5t31 69.5h208q-3 -67 -45 -121t-190 -92q-98 -25 -139.5 -51t-73.5 -90t-46 -170q93 105 227 105q170 0 264.5 -141.5t94.5 -385.5q0 -253 -103.5 -393t-293.5 -140q-130 0 -216.5 58.5t-135 177.5t-48.5 338zM280 496 q0 -185 51 -274t138 -89q84 0 132 90.5t48 273.5q0 380 -183 380q-186 0 -186 -381z" />
<glyph unicode="&#x432;" horiz-adv-x="940" d="M123 0v1010h455q152 0 207.5 -76t55.5 -172q0 -163 -179 -234q209 -61 209 -253q0 -122 -66 -198.5t-187 -76.5h-495zM332 158h202q132 0 132 154q0 156 -132 156h-202v-310zM332 578h188q127 0 127 142q0 81 -30.5 115t-96.5 34h-188v-291z" />
<glyph unicode="&#x433;" horiz-adv-x="656" d="M123 0v1010h533v-157h-324v-853h-209z" />
<glyph unicode="&#x434;" horiz-adv-x="924" d="M62 158h75l204 852h311l183 -852h75v-394h-139l-25 236h-520l-25 -236h-139v394zM320 158h307l-136 689h-28z" />
<glyph unicode="&#x435;" horiz-adv-x="907" d="M73 490q0 260 110 402t294 142q129 0 217 -71t124 -186.5t39 -302.5h-571q0 -205 55.5 -273.5t139.5 -68.5q140 0 177 189l190 -25q-75 -321 -374 -321q-183 0 -292 131t-109 384zM291 615h353q0 267 -174 267q-163 0 -179 -267z" />
<glyph unicode="&#x436;" horiz-adv-x="1122" d="M-25 0l290 536l-260 474h205l211 -395l44 -11v406h197v-406l44 11l211 395h194l-243 -406l298 -604h-215l-232 465l-57 -18v-447h-197v447l-58 18l-239 -465h-193z" />
<glyph unicode="&#x437;" horiz-adv-x="819" d="M41 266l188 37q38 -184 162 -184q68 0 103.5 50.5t35.5 123.5q0 61 -26.5 99.5t-63.5 48t-134 9.5v132q105 0 152 31.5t47 130.5q0 148 -113 148q-116 0 -145 -167l-186 38q23 122 109.5 197t231.5 75q156 0 240.5 -74.5t84.5 -197.5q0 -160 -168 -233q193 -64 193 -247 q0 -136 -88.5 -222t-251.5 -86q-178 0 -261.5 82t-109.5 209z" />
<glyph unicode="&#x438;" horiz-adv-x="968" d="M123 0v1010h209v-438q0 -161 -7 -209q44 95 106 194l205 322v131h209v-1010h-209v413q0 167 7 209q-43 -108 -117 -222l-194 -297v-103h-209z" />
<glyph unicode="&#x439;" horiz-adv-x="968" d="M123 0v1010h209v-438q0 -161 -7 -209q44 95 106 194l205 322v131h209v-1010h-209v413q0 167 7 209q-43 -108 -117 -222l-194 -297v-103h-209zM178 1382h140q31 -112 167 -112q134 0 165 112h141q-51 -244 -306 -244q-256 0 -307 244z" />
<glyph unicode="&#x43a;" horiz-adv-x="872" d="M123 0v1010h209v-452l326 452h206l-261 -349l290 -661h-225l-202 506l-134 -185v-321h-209z" />
<glyph unicode="&#x43b;" horiz-adv-x="733" d="M-25 0l280 1010h242l260 -1010h-219l-179 806l-197 -806h-187z" />
<glyph unicode="&#x43c;" horiz-adv-x="1248" d="M119 0v1010h304l212 -847l206 847h285v-1010h-190v825l-219 -825h-214l-215 825v-825h-169z" />
<glyph unicode="&#x43d;" horiz-adv-x="965" d="M123 0v1010h209v-401h302v401h209v-1010h-209v452h-302v-452h-209z" />
<glyph unicode="&#x43e;" horiz-adv-x="942" d="M73 505q0 529 400 529q182 0 288.5 -129t106.5 -390q0 -540 -400 -540q-184 0 -289.5 130.5t-105.5 399.5zM295 505q0 -190 41 -281t135 -91q93 0 134.5 92.5t41.5 279.5q0 213 -47.5 292.5t-128.5 79.5q-176 0 -176 -372z" />
<glyph unicode="&#x43f;" horiz-adv-x="929" d="M123 0v1010h683v-1010h-209v869h-265v-869h-209z" />
<glyph unicode="&#x440;" horiz-adv-x="977" d="M122 -342v1352h192v-166q79 183 250 183q153 0 247 -133.5t94 -380.5q0 -221 -85.5 -376t-265.5 -155q-144 0 -225 123v-447h-207zM329 422q0 -97 14.5 -151.5t59.5 -93t102 -38.5q178 0 178 374q0 362 -174 362q-77 0 -128.5 -74t-51.5 -211v-168z" />
<glyph unicode="&#x441;" horiz-adv-x="837" d="M73 502q0 260 101 396t294 136q311 0 355 -364l-201 -22q-15 132 -51 176.5t-102 44.5q-93 0 -135 -85.5t-42 -300.5q0 -336 177 -336q136 0 153 219l201 -18q-41 -373 -369 -373q-194 0 -287.5 140t-93.5 387z" />
<glyph unicode="&#x442;" horiz-adv-x="631" d="M-16 853v157h664v-157h-224v-853h-209v853h-231z" />
<glyph unicode="&#x443;" horiz-adv-x="733" d="M-1 1010h209l176 -694l181 694h188l-328 -1074q-36 -117 -66 -173t-85 -90.5t-142 -34.5q-52 0 -107 14v166q40 -7 73 -7q81 0 115 39.5t73 183.5z" />
<glyph unicode="&#x444;" horiz-adv-x="1160" d="M74 495q0 439 417 515v337h178v-337q417 -83 417 -512q0 -203 -106 -338t-311 -160v-341h-178v341q-206 25 -311.5 160.5t-105.5 334.5zM279 503q0 -306 212 -371v742q-212 -65 -212 -371zM669 132q212 65 212 371q0 307 -212 371v-742z" />
<glyph unicode="&#x445;" horiz-adv-x="733" d="M-35 0l293 524l-261 486h231l148 -294l154 294h194l-255 -457l298 -553h-232l-183 357l-190 -357h-197z" />
<glyph unicode="&#x446;" horiz-adv-x="949" d="M123 0v1010h209v-852h277v852h209v-852h127v-394h-140l-24 236h-658z" />
<glyph unicode="&#x447;" horiz-adv-x="888" d="M94 594v416h209v-383q0 -155 117 -155q81 0 136 52v486h209v-1010h-209v386q-79 -72 -204 -72q-105 0 -181.5 63t-76.5 217z" />
<glyph unicode="&#x448;" horiz-adv-x="1371" d="M123 0v1010h209v-852h249v852h209v-852h249v852h209v-1010h-1125z" />
<glyph unicode="&#x449;" horiz-adv-x="1379" d="M123 0v1010h209v-852h249v852h209v-852h249v852h209v-852h127v-394h-138l-24 236h-1090z" />
<glyph unicode="&#x44a;" horiz-adv-x="919" d="M-49 853v157h430v-386h220q129 0 203 -79.5t74 -233.5q0 -311 -291 -311h-415v853h-221zM381 158h169q124 0 124 159q0 166 -124 166h-169v-325z" />
<glyph unicode="&#x44b;" horiz-adv-x="1245" d="M123 0v1010h209v-386h220q152 0 214.5 -93t62.5 -220q0 -311 -291 -311h-415zM332 158h169q123 0 123 159q0 166 -123 166h-169v-325zM913 0v1010h209v-1010h-209z" />
<glyph unicode="&#x44c;" horiz-adv-x="870" d="M123 0v1010h209v-386h220q152 0 214.5 -93t62.5 -220q0 -311 -291 -311h-415zM332 158h169q123 0 123 159q0 166 -123 166h-169v-325z" />
<glyph unicode="&#x44d;" horiz-adv-x="842" d="M29 281l196 40q19 -174 148 -174q178 0 183 299h-319v142h317q-14 282 -179 282q-120 0 -147 -163l-197 36q64 292 342 292q197 0 296.5 -139t99.5 -390q0 -531 -384 -531q-302 0 -356 306z" />
<glyph unicode="&#x44e;" horiz-adv-x="1352" d="M123 0v1001h209v-399h168q37 433 383 433q195 0 295.5 -136.5t100.5 -383.5q0 -540 -394 -540q-363 0 -388 474h-165v-449h-209zM705 505q0 -187 41.5 -279.5t134.5 -92.5t134.5 92t41.5 280t-41.5 280t-134.5 92q-92 0 -134 -91t-42 -281z" />
<glyph unicode="&#x44f;" horiz-adv-x="888" d="M26 0l196 446q-152 71 -152 251q0 136 62 224.5t251 88.5h400v-1010h-209v403h-183l-153 -403h-212zM275 699q0 -68 30.5 -111.5t126.5 -43.5h142v325h-156q-75 0 -109 -40t-34 -130z" />
<glyph unicode="&#x451;" horiz-adv-x="907" d="M73 490q0 260 110 402t294 142q129 0 217 -71t124 -186.5t39 -302.5h-571q0 -205 55.5 -273.5t139.5 -68.5q140 0 177 189l190 -25q-75 -321 -374 -321q-183 0 -292 131t-109 384zM209 1265q0 44 32.5 74t76.5 30q43 0 76 -29t33 -75q0 -45 -34 -73.5t-75 -28.5 q-40 0 -74.5 28t-34.5 74zM291 615h353q0 267 -174 267q-163 0 -179 -267zM527 1265q0 43 32.5 73.5t76.5 30.5t76.5 -30t32.5 -74q0 -46 -34 -74t-75 -28t-75 28.5t-34 73.5z" />
<glyph unicode="&#x452;" horiz-adv-x="933" d="M-24 1142v127h147v119h209v-119h329v-127h-329v-289q86 137 240 137q104 0 168.5 -65t82 -187t17.5 -440q0 -330 -27 -432t-98.5 -155.5t-166.5 -53.5q-14 0 -42 2l-15 141q47 0 87.5 37.5t54 124t13.5 311.5q0 359 -25 451.5t-111 92.5q-77 0 -127.5 -76t-50.5 -227 v-514h-209v1142h-147z" />
<glyph unicode="&#x453;" horiz-adv-x="656" d="M123 0v1010h533v-157h-324v-853h-209zM230 1208l321 281l108 -136l-353 -222z" />
<glyph unicode="&#x454;" horiz-adv-x="842" d="M74 502q0 260 101 396.5t294 136.5q279 0 343 -292l-198 -36q-26 163 -146 163q-164 0 -179 -282h317v-142h-320q5 -299 184 -299q128 0 148 174l195 -40q-56 -306 -353 -306q-386 0 -386 527z" />
<glyph unicode="&#x455;" horiz-adv-x="803" d="M34 269l177 33q34 -174 193 -174q81 0 120.5 40t39.5 95q0 38 -27 75.5t-151 77.5q-119 38 -179.5 71t-99.5 95.5t-39 141.5q0 129 94 219.5t243 90.5q253 0 326 -260l-163 -44q-45 152 -171 152q-58 0 -93.5 -36t-35.5 -89q0 -60 36 -88t165 -70q159 -53 229 -119.5 t70 -185.5q0 -134 -100 -226.5t-270 -92.5q-321 0 -364 294z" />
<glyph unicode="&#x456;" horiz-adv-x="454" d="M118 1146v221h218v-221h-218zM123 0v1010h208v-1010h-208z" />
<glyph unicode="&#x457;" horiz-adv-x="454" d="M-41 1265q0 44 32.5 74t76.5 30q43 0 76 -29t33 -75q0 -45 -34 -73.5t-75 -28.5q-40 0 -74.5 28t-34.5 74zM123 0v1010h208v-1010h-208zM277 1265q0 43 32.5 73.5t76.5 30.5t76.5 -30t32.5 -74q0 -46 -34 -74t-75 -28t-75 28.5t-34 73.5z" />
<glyph unicode="&#x458;" horiz-adv-x="454" d="M-52 -175q40 -10 75 -10q69 0 86.5 39t17.5 185v971h208v-974q0 -155 -15 -229t-75.5 -122t-168.5 -48q-58 0 -128 15v173zM122 1146v221h219v-221h-219z" />
<glyph unicode="&#x459;" horiz-adv-x="1214" d="M0 0l308 1010h241l79 -386h295q153 0 215.5 -93.5t62.5 -219.5q0 -311 -291 -311h-367l-132 806l-224 -806h-187zM657 483l66 -325h149q124 0 124 159q0 166 -124 166h-215z" />
<glyph unicode="&#x45a;" horiz-adv-x="1366" d="M123 0v1010h209v-405h287v405h209v-405h220q130 0 203.5 -75.5t73.5 -218.5q0 -311 -291 -311h-415v463h-287v-463h-209zM828 158h169q123 0 123 154q0 151 -123 151h-169v-305z" />
<glyph unicode="&#x45b;" horiz-adv-x="937" d="M-25 1142v127h147v124h209v-124h323v-127h-323v-298q82 145 240 145q103 0 163 -45.5t84.5 -123.5t24.5 -228v-592h-209v570q0 138 -27.5 192.5t-92.5 54.5q-74 0 -128.5 -79t-54.5 -224v-514h-209v1142h-147z" />
<glyph unicode="&#x45c;" horiz-adv-x="874" d="M123 0v1010h209v-452l326 452h206l-261 -349l290 -661h-225l-202 506l-134 -185v-321h-209zM339 1208l321 281l108 -136l-353 -222z" />
<glyph unicode="&#x45e;" horiz-adv-x="733" d="M-1 1010h209l176 -694l181 694h188l-328 -1074q-36 -117 -66 -173t-85 -90.5t-142 -34.5q-52 0 -107 14v166q40 -7 73 -7q81 0 115 39.5t73 183.5zM87 1382h140q31 -112 167 -112q134 0 165 112h141q-51 -244 -306 -244q-256 0 -307 244z" />
<glyph unicode="&#x45f;" horiz-adv-x="941" d="M123 0v1010h209v-852h277v852h209v-1010h-260l-18 -236h-139l-18 236h-260z" />
<glyph unicode="&#x490;" horiz-adv-x="769" d="M131 0v1365h484v256h178v-446h-437v-1175h-225z" />
<glyph unicode="&#x491;" horiz-adv-x="656" d="M123 0v1010h364v219h169v-376h-324v-853h-209z" />
<glyph unicode="&#x2000;" horiz-adv-x="934" />
<glyph unicode="&#x2001;" horiz-adv-x="1869" />
<glyph unicode="&#x2002;" horiz-adv-x="934" />
<glyph unicode="&#x2003;" horiz-adv-x="1869" />
<glyph unicode="&#x2004;" horiz-adv-x="623" />
<glyph unicode="&#x2005;" horiz-adv-x="467" />
<glyph unicode="&#x2006;" horiz-adv-x="311" />
<glyph unicode="&#x2007;" horiz-adv-x="311" />
<glyph unicode="&#x2008;" horiz-adv-x="233" />
<glyph unicode="&#x2009;" horiz-adv-x="373" />
<glyph unicode="&#x200a;" horiz-adv-x="103" />
<glyph unicode="&#x2010;" horiz-adv-x="593" d="M80 429v167h432v-167h-432z" />
<glyph unicode="&#x2011;" horiz-adv-x="593" d="M80 429v167h432v-167h-432z" />
<glyph unicode="&#x2012;" horiz-adv-x="593" d="M80 429v167h432v-167h-432z" />
<glyph unicode="&#x2013;" d="M170 432v161h706v-161h-706z" />
<glyph unicode="&#x2014;" horiz-adv-x="1291" d="M63 432v161h1165v-161h-1165z" />
<glyph unicode="&#x2015;" horiz-adv-x="1291" d="M63 432v161h1165v-161h-1165z" />
<glyph unicode="&#x2017;" horiz-adv-x="1024" d="M0 -101h1024v-144h-1024v144zM0 -341h1024v-144h-1024v144z" />
<glyph unicode="&#x2018;" horiz-adv-x="453" d="M108 885v248l138 256h100l-117 -250h97v-254h-218z" />
<glyph unicode="&#x2019;" horiz-adv-x="453" d="M108 862l117 249h-97v254h218v-247l-139 -256h-99z" />
<glyph unicode="&#x201a;" horiz-adv-x="454" d="M108 -249l117 249h-97v254h218v-248l-139 -255h-99z" />
<glyph unicode="&#x201b;" horiz-adv-x="453" d="M108 1118v247h218v-254h-97l117 -249h-100z" />
<glyph unicode="&#x201c;" horiz-adv-x="768" d="M111 885v248l138 256h100l-117 -250h97v-254h-218zM418 885v248l138 256h99l-116 -250h96v-254h-217z" />
<glyph unicode="&#x201d;" horiz-adv-x="768" d="M111 862l117 249h-97v254h218v-247l-139 -256h-99zM418 862l117 249h-97v254h217v-247l-138 -256h-99z" />
<glyph unicode="&#x201e;" horiz-adv-x="768" d="M111 -249l117 249h-97v254h218v-248l-139 -255h-99zM418 -249l117 249h-97v254h217v-248l-138 -255h-99z" />
<glyph unicode="&#x2020;" d="M123 802v178h301v385h198v-385h301v-178h-301v-1144h-198v1144h-301z" />
<glyph unicode="&#x2021;" d="M123 44v177h301v581h-301v178h301v385h198v-385h301v-178h-301v-581h301v-177h-301v-386h-198v386h-301z" />
<glyph unicode="&#x2022;" horiz-adv-x="1365" d="M401 696q0 118 82.5 202t199.5 84q116 0 198.5 -84t82.5 -202q0 -117 -82.5 -201.5t-198.5 -84.5q-119 0 -200.5 84.5t-81.5 201.5z" />
<glyph unicode="&#x2026;" horiz-adv-x="1466" d="M130 0v258h228v-258h-228zM619 0v258h228v-258h-228zM1108 0v258h228v-258h-228z" />
<glyph unicode="&#x202f;" horiz-adv-x="373" />
<glyph unicode="&#x2030;" horiz-adv-x="2024" d="M88 1024q0 169 73.5 261t195.5 92q120 0 194 -90.5t74 -262.5q0 -169 -73.5 -261t-194.5 -92t-195 91t-74 262zM247 1024q0 -227 109 -227q110 0 110 227q0 228 -109 228q-110 0 -110 -228zM300 0l666 1365h135l-666 -1365h-135zM772 341q0 170 74 261.5t194 91.5 q121 0 195 -92t74 -261t-73.5 -261t-195.5 -92q-121 0 -194.5 92t-73.5 261zM931 336q0 -222 109 -222q110 0 110 227q0 228 -110 228q-109 0 -109 -233zM1400 341q0 170 74 261.5t195 91.5q120 0 194 -91.5t74 -261.5q0 -169 -73.5 -261t-195.5 -92q-121 0 -194.5 92 t-73.5 261zM1559 336q0 -222 109 -222q110 0 110 227q0 228 -109 228q-110 0 -110 -233z" />
<glyph unicode="&#x2032;" horiz-adv-x="438" d="M55 817l158 548h224l-225 -548h-157z" />
<glyph unicode="&#x2033;" horiz-adv-x="775" d="M42 817l158 548h224l-225 -548h-157zM447 817l158 548h224l-225 -548h-157z" />
<glyph unicode="&#x2039;" horiz-adv-x="488" d="M89 525l193 328h117l-108 -328l108 -327h-117z" />
<glyph unicode="&#x203a;" horiz-adv-x="488" d="M89 198l108 327l-108 328h117l193 -328l-193 -327h-117z" />
<glyph unicode="&#x203c;" horiz-adv-x="1024" d="M115 1365h277l-70 -997h-137zM139 0v251h228v-251h-228zM605 1365h277l-70 -997h-137zM630 0v251h228v-251h-228z" />
<glyph unicode="&#x203e;" horiz-adv-x="1135" d="M-42 1795v74h1219v-74h-1219z" />
<glyph unicode="&#x2044;" horiz-adv-x="176" d="M-318 0l666 1365h146l-666 -1365h-146z" />
<glyph unicode="&#x205f;" horiz-adv-x="467" />
<glyph unicode="&#x20ac;" d="M20 487v123h93q-2 21 -2 68q0 38 2 55h-93v123h101q67 535 469 535q171 0 280 -101.5t131 -285.5l-221 -29q-26 248 -190 248q-197 0 -232 -367h265v-123h-271l-2 -69q0 -39 2 -54h271v-123h-265q31 -344 228 -344q77 0 127.5 72t62.5 188l225 -28q-54 -400 -415 -400 q-400 0 -465 512h-101z" />
<glyph unicode="&#x2122;" horiz-adv-x="1465" d="M31 1203v121h500v-121h-175v-657h-152v657h-173zM592 546v778h223l144 -559l151 559h218v-778h-142v654l-177 -654h-121l-169 655v-655h-127z" />
<glyph unicode="&#x25ca;" horiz-adv-x="1012" d="M47 709l391 713h111l418 -713l-418 -709h-111zM155 709l340 -615l359 615l-359 616z" />
<glyph unicode="&#x25fc;" horiz-adv-x="1010" d="M0 0v1010h1010v-1010h-1010z" />
<glyph unicode="&#xfb01;" horiz-adv-x="977" d="M21 842v168h132q3 181 31.5 249.5t90.5 107t174 38.5q50 0 97 -8v-167q-27 4 -52 4q-65 0 -94.5 -22.5t-36 -56t-6.5 -145.5h177v-168h-177v-842h-204v842h-132zM642 1146v221h218v-221h-218zM646 0v1010h209v-1010h-209z" />
<glyph unicode="&#xfb02;" horiz-adv-x="977" d="M20 842v168h132q3 181 31.5 249.5t90.5 107t174 38.5q50 0 97 -8v-167q-27 4 -52 4q-65 0 -94.5 -22.5t-36 -56t-6.5 -145.5h177v-168h-177v-842h-204v842h-132zM645 0v1365h209v-1365h-209z" />
</font>
</defs>
</svg>
